<?xml version="1.0" encoding="UTF-8" standalone="no"?>
<!-- Created with Inkscape (http://www.inkscape.org/) -->

<svg
   xmlns:osb="http://www.openswatchbook.org/uri/2009/osb"
   xmlns:dc="http://purl.org/dc/elements/1.1/"
   xmlns:cc="http://creativecommons.org/ns#"
   xmlns:rdf="http://www.w3.org/1999/02/22-rdf-syntax-ns#"
   xmlns:svg="http://www.w3.org/2000/svg"
   xmlns="http://www.w3.org/2000/svg"
   xmlns:sodipodi="http://sodipodi.sourceforge.net/DTD/sodipodi-0.dtd"
   xmlns:inkscape="http://www.inkscape.org/namespaces/inkscape"
   width="48"
   height="48"
   id="svg2"
   version="1.1"
   inkscape:version="0.48.5 r10040"
   sodipodi:docname="zarafa2.svg">
  <defs
     id="defs4">
    <linearGradient
       id="linearGradient3764"
       osb:paint="solid">
      <stop
         style="stop-color:#000000;stop-opacity:1;"
         offset="0"
         id="stop3766" />
    </linearGradient>
  </defs>
  <sodipodi:namedview
     id="base"
     pagecolor="#ffffff"
     bordercolor="#666666"
     borderopacity="1.0"
     inkscape:pageopacity="0.0"
     inkscape:pageshadow="2"
     inkscape:zoom="5.6"
     inkscape:cx="9.2128814"
     inkscape:cy="12.581718"
     inkscape:document-units="px"
     inkscape:current-layer="layer1"
     showgrid="true"
     inkscape:window-width="1920"
     inkscape:window-height="1161"
     inkscape:window-x="1920"
     inkscape:window-y="0"
     inkscape:window-maximized="1"
     borderlayer="false"
     inkscape:snap-bbox="true"
     showguides="false"
     inkscape:snap-global="true">
    <inkscape:grid
       type="xygrid"
       id="grid3762"
       empspacing="5"
       visible="true"
       enabled="true"
       snapvisiblegridlinesonly="true" />
  </sodipodi:namedview>
  <metadata
     id="metadata7">
    <rdf:RDF>
      <cc:Work
         rdf:about="">
        <dc:format>image/svg+xml</dc:format>
        <dc:type
           rdf:resource="http://purl.org/dc/dcmitype/StillImage" />
        <dc:title></dc:title>
      </cc:Work>
    </rdf:RDF>
  </metadata>
  <g
     inkscape:label="Layer 1"
     inkscape:groupmode="layer"
     id="layer1"
     transform="translate(0,-1004.3622)">
    <path
       style="fill:#0b4a91;fill-opacity:1;stroke:none"
       d="m 0.4097595,1004.3665 a 0.97960183,0.97960183 0 0 0 -0.48975194,0.2755 c -0.37790338,0.3664 -0.28538728,0.4337 -0.30609497,0.5204 -0.0207067,0.086 -0.0215981,0.1446 -0.0306095,0.2143 -0.0180131,0.1393 -0.0187085,0.2985 -0.0306095,0.4897 -0.023802,0.3823 -0.0450179,0.9098 -0.0612189,1.5611 -0.032402,1.3025 -0.0501996,3.1235 -0.061219,5.2955 -0.022029,4.3439 -0.0293459,10.0667 0,15.7945 0.0586821,11.4556 0.18365688,22.8652 0.18365688,22.8652 a 0.97960183,0.97960183 0 0 0 0.97950388,0.9795 l 47.01618653,0 a 0.97960183,0.97960183 0 0 0 0.979504,-0.9795 l 0,-46.0367 a 0.97960183,0.97960183 0 0 0 -0.979504,-0.9795 l -47.01618653,0 a 0.97960183,0.97960183 0 0 0 -0.18365697,0 z m 20.6308005,7.836 11.876485,0 0.275485,0.1837 c 0.326425,0.221 0.596892,0.5784 0.857066,1.1938 0.295322,0.6987 0.387751,0.7951 0.979504,1.0407 0.884382,0.3672 1.072684,0.5073 1.132551,0.8264 0.08389,0.4472 -0.244612,0.8616 -1.683522,2.2346 -2.608969,2.489 -3.947763,3.4009 -5.019957,3.3976 -0.438232,0 -0.53385,-0.012 -0.734628,-0.3061 -0.17719,-0.2589 -0.167303,-1.484 0,-2.2039 0.112728,-0.485 0.143648,-1.0364 0.122438,-1.5917 -0.0085,-0.2233 -0.09568,-0.3548 -0.459143,-0.7039 -0.249539,-0.2396 -0.428533,-0.4588 -0.428533,-0.4898 0,-0.2411 0.478755,-0.7201 1.683523,-1.6224 0.771299,-0.5776 1.489607,-1.1 1.591694,-1.1631 0.526341,-0.3261 0.618179,-0.3367 -10.805153,-0.3367 -9.576047,0 -10.9950984,0.045 -11.2030755,0.153 -0.5301134,0.274 -0.5203614,-0.3398 -0.5203614,8.7543 0,4.5497 0.046889,8.2646 0.061219,8.2646 0.01434,0 0.2197253,-0.1709 0.4591425,-0.3979 0.2394201,-0.2272 0.9029265,-0.7921 1.4998655,-1.2243 0.59694,-0.4322 1.429545,-1.0386 1.867179,-1.3775 1.217318,-0.9426 1.376705,-0.8829 1.316209,0.6734 -0.09095,2.3396 -0.31561,5.3804 -0.428533,5.8465 -0.06597,0.2722 -0.152564,0.621 -0.183657,0.7958 -0.09093,0.5114 -0.604482,1.4452 -0.979504,1.8059 -0.527017,0.5069 -1.107879,0.7643 -1.897789,0.7959 -0.5734027,0.022 -0.7188394,0.01 -0.979504,-0.153 -0.6447976,-0.4075 -0.96736,-1.0161 -1.2243799,-2.2651 -0.1595553,-0.7755 -0.1530475,-1.1319 -0.1530475,-10.9277 l 0,-10.1011 c 0,-0.5848 0.5496006,-1.0703 1.1019419,-1.0713 l 11.8764845,-0.03 z m 5.662757,4.2242 c 0.413099,-0.082 0.798722,0.2355 1.101942,0.8877 0.134824,0.2899 0.157943,0.4929 0.153047,1.0407 -0.0034,0.3855 -0.0358,0.8129 -0.09183,0.9488 -0.05601,0.1359 -0.14986,0.737 -0.183657,1.2856 -0.05739,0.9317 -0.06728,0.9997 -0.306095,1.3469 -0.313344,0.4553 -0.568157,0.6428 -0.918285,0.6428 -0.212992,0 -0.343095,-0.1069 -0.642799,-0.4285 -0.206481,-0.2214 -0.599602,-0.7481 -0.826457,-1.1938 -0.22685,-0.4456 -0.499393,-1.0027 -0.642799,-1.255 -0.342373,-0.6028 -0.416503,-0.9843 -0.244876,-1.3162 0.159816,-0.3091 2.261644,-1.891 2.601807,-1.959 z m 9.458334,1.0713 c 0.03086,-0.018 0.05382,0 0.09183,0 0.266067,-0.023 0.767091,0.3353 2.173274,1.5917 0.576434,0.515 0.840806,0.9257 1.040723,1.3162 l 0.489752,0.9489 -0.06122,10.4685 c -0.0455,6.1475 0.01127,11.2165 -0.03061,11.5091 -0.04188,0.2928 -0.420338,0.8381 -0.734628,1.0101 -0.314291,0.172 -1.077234,0.1455 -11.080638,0.1837 -5.943553,0.023 -10.976222,0.012 -11.203076,0 -1.43805,-0.073 -2.631271,-0.4901 -3.397654,-1.2244 -1.006563,-0.9644 -1.417821,-1.9762 -1.499865,-3.7037 -0.07159,-1.5074 0.194874,-2.4485 0.857066,-3.0916 0.84856,-0.8244 2.689026,-1.1584 4.438377,-0.8264 1.106125,0.2097 1.973967,0.7905 2.907902,1.959 0.217609,0.2721 0.617509,0.7458 0.918285,1.0407 1.118342,1.0966 1.378625,1.5381 1.377427,2.5712 -8.85e-4,0.6601 -0.05508,0.797 -0.244876,1.1632 -0.264683,0.5108 -0.732893,1.0266 -1.19377,1.2856 -0.187793,0.106 -0.306095,0.2385 -0.306095,0.2754 0,0.037 4.010916,0.061 8.937973,0.061 9.866468,0 9.236418,0.01 9.550163,-0.5203 0.122949,-0.208 0.153047,-1.1325 0.153047,-10.4991 0,-8.4419 -0.03327,-10.2848 -0.122438,-10.2848 -0.660442,0.7703 -1.382901,1.6366 -1.83657,2.2651 -1.638045,1.6857 -2.200564,1.5581 -3.458873,-0.7958 -0.195207,-0.3652 -0.546343,-0.8972 -0.826456,-1.1937 -0.604529,-0.6405 -0.704019,-0.8009 -0.704019,-1.2244 0,-0.4195 0.158707,-0.6704 1.652913,-2.2651 1.08373,-1.1566 1.776587,-1.8242 2.112055,-2.0203 z m -13.376349,1.959 c 0.378994,0.039 0.706507,0.4887 1.16316,1.4386 0.466214,0.9698 0.726293,1.9223 0.673409,2.5712 -0.132093,1.6209 -1.251298,2.4651 -2.724245,2.1427 -0.158798,-0.035 -0.547397,-0.1101 -0.887675,-0.1837 -1.098283,-0.2368 -2.562602,-0.7205 -3.03034,-1.01 -0.516332,-0.3197 -0.734833,-0.7994 -0.489752,-1.102 0.133168,-0.1643 0.741552,-0.6572 1.652913,-1.3468 0.760394,-0.5753 2.062557,-1.5506 2.877292,-2.1733 0.313614,-0.2398 0.537841,-0.3606 0.765238,-0.3367 z m 6.703479,2.9998 c 0.11758,-0.018 0.22626,0 0.336705,0 0.66267,-0.017 1.205084,0.3379 2.142664,1.2856 0.764991,0.7736 0.924009,0.9555 1.346818,1.7753 0.47584,0.9226 0.791966,1.7516 0.795847,2.0508 0.0061,0.4683 -0.336648,1.1138 -1.285599,2.2958 -0.541092,0.6739 -1.401251,1.7469 -1.867179,2.3569 -0.465926,0.6096 -0.89852,1.1599 -0.948894,1.2243 -0.09341,0.1203 -0.267731,0.1164 -0.489752,0.03 -0.215463,-0.083 -1.440213,-1.0014 -1.897789,-1.4387 -1.407587,-1.3452 -2.133498,-3.0933 -2.173274,-5.173 -0.01472,-0.7696 -0.01586,-0.8002 0.306095,-1.4387 0.249538,-0.4949 0.479839,-0.8469 1.010113,-1.3773 0.781764,-0.7819 1.520705,-1.2441 2.356931,-1.4999 0.133564,-0.041 0.249735,-0.074 0.367314,-0.092 z m -13.468178,2.2039 c 0.166984,0.01 0.341614,0.065 0.61219,0.2142 1.488175,0.8248 2.378328,1.1842 3.887406,1.4692 1.628986,0.3076 1.835034,0.4067 2.326322,1.4081 0.295637,0.6026 0.339903,0.8031 0.336704,1.2243 -0.0032,0.4322 -0.03637,0.5659 -0.336704,1.0714 -0.189897,0.3197 -0.410598,0.6454 -0.489752,0.7347 -0.07916,0.089 -0.3643,0.4106 -0.61219,0.7039 -0.247892,0.2935 -0.667219,0.7764 -0.948895,1.0714 -0.281676,0.2947 -0.762148,0.8093 -1.040723,1.1632 -0.278574,0.3541 -0.58999,0.7381 -0.734627,0.8264 -0.303859,0.1851 -0.74721,0.1975 -1.101942,0.03 -0.193064,-0.09 -0.503161,-0.1007 -1.377428,-0.061 -1.797876,0.082 -1.857555,0.01 -1.928398,-1.5917 -0.06232,-1.4031 0.239121,-5.2587 0.550971,-6.9484 0.146734,-0.795 0.211987,-0.9687 0.397923,-1.1325 0.147117,-0.1296 0.292158,-0.192 0.459143,-0.1836 z m 8.601268,5.3872 c 0.07455,0 0.171153,0.013 0.244876,0.061 0.111003,0.072 0.183657,0.1994 0.183657,0.2448 0,0.093 0.421178,1.0053 0.581581,1.255 0.467216,0.7274 1.601428,1.807 2.234493,2.1426 0.123521,0.065 0.365942,0.2046 0.520361,0.3061 0.154417,0.1019 0.348474,0.2283 0.428533,0.2756 0.131429,0.077 0.109285,0.1417 -0.306095,0.7346 -0.253015,0.361 -0.641255,0.9452 -0.857066,1.2856 -0.617146,0.9729 -1.328369,1.8747 -2.050836,2.6018 -0.703053,0.7075 -2.085865,1.8672 -2.234493,1.8672 -0.04835,0 -0.155205,-0.322 -0.214266,-0.6734 -0.145282,-0.8645 -0.460361,-1.4336 -1.438647,-2.6019 -0.300639,-0.3592 -0.634049,-0.7557 -0.734628,-0.9183 -0.354611,-0.5736 -0.170618,-1.5448 0.550971,-2.7854 0.368967,-0.6344 0.575018,-0.8752 1.438647,-1.8978 0.378315,-0.448 0.833424,-1.036 0.979503,-1.2856 0.245314,-0.419 0.449746,-0.6181 0.673409,-0.6122 z m -16.4985184,6.8871 0.030609,0 c 0.1090786,0.02 1.2839739,0.4044 1.9283979,0.6734 0.926938,0.3872 1.012933,0.5807 1.193771,2.908 0.04604,0.5927 0.141881,1.2837 0.214266,1.5304 0.266577,0.9086 0.810999,1.6418 1.652913,2.1733 0.186657,0.1174 0.367314,0.2227 0.367314,0.2448 0,0.023 -0.974372,0.063 -2.142665,0.061 -3.2835563,0.07 -3.2924297,0.025 -3.3058254,-4.3771 0.00284,-2.9045 -0.021618,-3.2005 0.061219,-3.2141 z"
       id="rect2983"
       inkscape:export-xdpi="2151.0801"
       inkscape:export-ydpi="2151.0801"
       inkscape:connector-curvature="0" />
  </g>
</svg>
