<?xml version="1.0" encoding="UTF-8" standalone="no"?>
<!-- Created with Inkscape (http://www.inkscape.org/) -->

<svg
   xmlns:osb="http://www.openswatchbook.org/uri/2009/osb"
   xmlns:dc="http://purl.org/dc/elements/1.1/"
   xmlns:cc="http://creativecommons.org/ns#"
   xmlns:rdf="http://www.w3.org/1999/02/22-rdf-syntax-ns#"
   xmlns:svg="http://www.w3.org/2000/svg"
   xmlns="http://www.w3.org/2000/svg"
   xmlns:sodipodi="http://sodipodi.sourceforge.net/DTD/sodipodi-0.dtd"
   xmlns:inkscape="http://www.inkscape.org/namespaces/inkscape"
   width="48"
   height="48"
   id="svg2"
   version="1.1"
   inkscape:version="0.48.5 r10040"
   sodipodi:docname="zarafa2wit.svg">
  <defs
     id="defs4">
    <linearGradient
       id="linearGradient3764"
       osb:paint="solid">
      <stop
         style="stop-color:#000000;stop-opacity:1;"
         offset="0"
         id="stop3766" />
    </linearGradient>
  </defs>
  <sodipodi:namedview
     id="base"
     pagecolor="#343434"
     bordercolor="#666666"
     borderopacity="1.0"
     inkscape:pageopacity="0"
     inkscape:pageshadow="2"
     inkscape:zoom="5.6568543"
     inkscape:cx="43.20653"
     inkscape:cy="31.295691"
     inkscape:document-units="px"
     inkscape:current-layer="layer2"
     showgrid="true"
     inkscape:window-width="1920"
     inkscape:window-height="1161"
     inkscape:window-x="1920"
     inkscape:window-y="0"
     inkscape:window-maximized="1"
     borderlayer="false"
     inkscape:snap-bbox="true"
     showguides="false"
     inkscape:snap-global="true"
     inkscape:snap-grids="false"
     inkscape:snap-to-guides="false">
    <inkscape:grid
       type="xygrid"
       id="grid3762"
       empspacing="5"
       visible="true"
       enabled="true"
       snapvisiblegridlinesonly="true" />
  </sodipodi:namedview>
  <metadata
     id="metadata7">
    <rdf:RDF>
      <cc:Work
         rdf:about="">
        <dc:format>image/svg+xml</dc:format>
        <dc:type
           rdf:resource="http://purl.org/dc/dcmitype/StillImage" />
        <dc:title></dc:title>
      </cc:Work>
    </rdf:RDF>
  </metadata>
  <g
     inkscape:groupmode="layer"
     id="layer2"
     inkscape:label="Layer" />
  <g
     inkscape:label="Layer 1"
     inkscape:groupmode="layer"
     id="layer1"
     transform="translate(0,-1004.3622)">
    <g
       id="g3812">
      <path
         id="path3802"
         d="m 32.8125,1012.206 c -0.518177,0.1167 -1.4375,0.6875 -1.4375,0.6875 -0.03123,0.031 -0.09046,0.053 -0.15625,0.094 -0.102087,0.063 -0.791201,0.6099 -1.5625,1.1875 -1.204768,0.9023 -1.6875,1.3527 -1.6875,1.5938 0,0.031 0.156711,0.2604 0.40625,0.5 0.363463,0.3491 0.46025,0.4954 0.46875,0.7187 0.02121,0.5553 -0.01227,1.1088 -0.125,1.5938 -0.167303,0.7199 -0.17719,1.9285 0,2.1875 0.200778,0.294 0.311768,0.3125 0.75,0.3125 1.072194,0 2.391031,-0.9173 5,-3.4063 1.43891,-1.373 1.77139,-1.7716 1.6875,-2.2187 -0.05987,-0.3192 -0.240618,-0.4766 -1.125,-0.8438 -0.591753,-0.2456 -0.673428,-0.3325 -0.96875,-1.0312 -0.260174,-0.6155 -0.548575,-0.9665 -0.875,-1.1875 0,0 -0.173463,-0.1547 -0.28125,-0.1875 -0.0299,-0.01 -0.06326,-0.01 -0.09375,-3e-4 z"
         style="fill:#ffffff;fill-opacity:1;stroke:none"
         inkscape:connector-curvature="0"
         sodipodi:nodetypes="acccsccccscccccaa" />
      <path
         id="path3008"
         d="m 13.5625,1026.2372 c -0.203145,0.045 -0.512256,0.2403 -0.96875,0.5938 -0.437634,0.3389 -1.27806,0.9428 -1.875,1.375 -0.632592,0.5052 -1.3336086,1.0573 -1.9375,1.531 l -0.6875,0.5625 c 0.012939,2.3939 0.027745,3.5586 0.125,4.0313 0.2570199,1.249 0.5739524,1.8737 1.21875,2.2812 0.2606646,0.163 0.3953474,0.147 0.96875,0.125 0.78991,-0.032 1.379233,-0.2743 1.90625,-0.7812 0.375022,-0.3607 0.87782,-1.3011 0.96875,-1.8125 0.03109,-0.1748 0.12153,-0.5091 0.1875,-0.7813 0.112923,-0.4661 0.34655,-3.5041 0.4375,-5.8437 0.03781,-0.9727 -0.0052,-1.3572 -0.34375,-1.2813 z"
         style="fill:#ffffff;fill-opacity:1;stroke:none"
         inkscape:connector-curvature="0"
         sodipodi:nodetypes="csccccccsccscc" />
      <path
         id="path3006"
         d="m 26.703317,1016.4267 c 0.413099,-0.082 0.798722,0.2355 1.101942,0.8877 0.134824,0.2899 0.157943,0.4929 0.153047,1.0407 -0.0034,0.3855 -0.0358,0.8129 -0.09183,0.9488 -0.05601,0.1359 -0.14986,0.737 -0.183657,1.2856 -0.05739,0.9317 -0.06728,0.9997 -0.306095,1.3469 -0.313344,0.4553 -0.568157,0.6428 -0.918285,0.6428 -0.212992,0 -0.343095,-0.1069 -0.642799,-0.4285 -0.206481,-0.2214 -0.599602,-0.7481 -0.826457,-1.1938 -0.22685,-0.4456 -0.499393,-1.0027 -0.642799,-1.255 -0.342373,-0.6028 -0.416503,-0.9843 -0.244876,-1.3162 0.159816,-0.3091 2.261644,-1.891 2.601807,-1.959 z"
         style="fill:#ffffff;fill-opacity:1;stroke:none" />
      <path
         id="path3810"
         d="m 36.125,1017.5185 c -0.335468,0.1961 -1.04127,0.8433 -2.125,2 -1.494206,1.5947 -1.65625,1.8617 -1.65625,2.2812 0,0.4235 0.114221,0.5783 0.71875,1.2188 0.280113,0.2965 0.617293,0.8223 0.8125,1.1875 1.258309,2.3539 1.830705,2.4982 3.46875,0.8125 0.848256,-1.1025 1.784742,-2.1713 2.5625,-3.125 0.02615,-1.167 -0.900631,-2.096 -1.53125,-2.7813 -1.406183,-1.2564 -1.890183,-1.6168 -2.15625,-1.5937 -0.03801,0 -0.06289,-0.018 -0.09375,0 z"
         style="fill:#ffffff;fill-opacity:1;stroke:none"
         inkscape:connector-curvature="0"
         sodipodi:nodetypes="ccsccccccc" />
      <path
         id="path3004"
         d="m 15.90625,1035.5497 c -1.295415,-0.01 -2.48858,0.3505 -3.125,0.9688 -0.662192,0.6431 -0.94659,1.5863 -0.875,3.0937 0.08204,1.7275 0.493437,2.7231 1.5,3.6875 0.766383,0.7343 1.7807,1.052 3.59375,1.0625 0.064,0 2.179749,0.3127 3.191291,-0.017 0.948114,-0.4693 1.446379,-1.1183 1.964959,-1.9209 0.171746,-0.3549 0.249115,-0.4961 0.25,-1.1562 0.0012,-1.0331 -0.256658,-1.4972 -1.375,-2.5938 -0.300776,-0.2949 -0.688641,-0.7591 -0.90625,-1.0312 -0.933935,-1.1685 -1.800125,-1.7591 -2.90625,-1.9688 -0.437338,-0.083 -0.880695,-0.1225 -1.3125,-0.125 z"
         style="fill:#ffffff;fill-opacity:1;stroke:none"
         inkscape:connector-curvature="0"
         sodipodi:nodetypes="ccssccccccccc" />
      <path
         id="path3002"
         d="m 22.785302,1019.457 c 0.378994,0.039 0.706507,0.4887 1.16316,1.4386 0.466214,0.9698 0.726293,1.9223 0.673409,2.5712 -0.132093,1.6209 -1.251298,2.4651 -2.724245,2.1427 -0.158798,-0.035 -0.547397,-0.1101 -0.887675,-0.1837 -1.098283,-0.2368 -2.562602,-0.7205 -3.03034,-1.01 -0.516332,-0.3197 -0.734833,-0.7994 -0.489752,-1.102 0.133168,-0.1643 0.741552,-0.6572 1.652913,-1.3468 0.760394,-0.5753 2.062557,-1.5506 2.877292,-2.1733 0.313614,-0.2398 0.537841,-0.3606 0.765238,-0.3367 z"
         style="fill:#ffffff;fill-opacity:1;stroke:none" />
      <path
         id="path3000"
         d="m 29.488781,1022.4568 c 0.11758,-0.018 0.22626,0 0.336705,0 0.66267,-0.017 1.205084,0.3379 2.142664,1.2856 0.764991,0.7736 0.924009,0.9555 1.346818,1.7753 0.47584,0.9226 0.791966,1.7516 0.795847,2.0508 0.0061,0.4683 -0.336648,1.1138 -1.285599,2.2958 -0.541092,0.6739 -1.401251,1.7469 -1.867179,2.3569 -0.465926,0.6096 -0.89852,1.1599 -0.948894,1.2243 -0.09341,0.1203 -0.267731,0.1164 -0.489752,0.03 -0.215463,-0.083 -1.440213,-1.0014 -1.897789,-1.4387 -1.407587,-1.3452 -2.133498,-3.0933 -2.173274,-5.173 -0.01472,-0.7696 -0.01586,-0.8002 0.306095,-1.4387 0.249538,-0.4949 0.479839,-0.8469 1.010113,-1.3773 0.781764,-0.7819 1.520705,-1.2441 2.356931,-1.4999 0.133564,-0.041 0.249735,-0.074 0.367314,-0.092 z"
         style="fill:#ffffff;fill-opacity:1;stroke:none" />
      <path
         id="path2998"
         d="m 16.020603,1024.6607 c 0.166984,0.01 0.341614,0.065 0.61219,0.2142 1.488175,0.8248 2.378328,1.1842 3.887406,1.4692 1.628986,0.3076 1.835034,0.4067 2.326322,1.4081 0.295637,0.6026 0.339903,0.8031 0.336704,1.2243 -0.0032,0.4322 -0.03637,0.5659 -0.336704,1.0714 -0.189897,0.3197 -0.410598,0.6454 -0.489752,0.7347 -0.07916,0.089 -0.3643,0.4106 -0.61219,0.7039 -0.247892,0.2935 -0.667219,0.7764 -0.948895,1.0714 -0.281676,0.2947 -0.762148,0.8093 -1.040723,1.1632 -0.278574,0.3541 -0.58999,0.7381 -0.734627,0.8264 -0.303859,0.1851 -0.74721,0.1975 -1.101942,0.03 -0.193064,-0.09 -0.503161,-0.1007 -1.377428,-0.061 -1.797876,0.082 -1.857555,0.01 -1.928398,-1.5917 -0.06232,-1.4031 0.239121,-5.2587 0.550971,-6.9484 0.146734,-0.795 0.211987,-0.9687 0.397923,-1.1325 0.147117,-0.1296 0.292158,-0.192 0.459143,-0.1836 z"
         style="fill:#ffffff;fill-opacity:1;stroke:none" />
      <path
         id="path2996"
         d="m 24.621871,1030.0479 c 0.07455,0 0.171153,0.013 0.244876,0.061 0.111003,0.072 0.183657,0.1994 0.183657,0.2448 0,0.093 0.421178,1.0053 0.581581,1.255 0.467216,0.7274 1.601428,1.807 2.234493,2.1426 0.123521,0.065 0.365942,0.2046 0.520361,0.3061 0.154417,0.1019 0.348474,0.2283 0.428533,0.2756 0.131429,0.077 0.109285,0.1417 -0.306095,0.7346 -0.253015,0.361 -0.641255,0.9452 -0.857066,1.2856 -0.617146,0.9729 -1.328369,1.8747 -2.050836,2.6018 -0.703053,0.7075 -2.085865,1.8672 -2.234493,1.8672 -0.04835,0 -0.155205,-0.322 -0.214266,-0.6734 -0.145282,-0.8645 -0.460361,-1.4336 -1.438647,-2.6019 -0.300639,-0.3592 -0.634049,-0.7557 -0.734628,-0.9183 -0.354611,-0.5736 -0.170618,-1.5448 0.550971,-2.7854 0.368967,-0.6344 0.575018,-0.8752 1.438647,-1.8978 0.378315,-0.448 0.833424,-1.036 0.979503,-1.2856 0.245314,-0.419 0.449746,-0.6181 0.673409,-0.6122 z"
         style="fill:#ffffff;fill-opacity:1;stroke:none" />
      <path
         id="rect2983"
         d="m 8.1233526,1036.935 0.030609,0 c 0.1090786,0.02 1.2839739,0.4044 1.9283984,0.6734 0.926938,0.3872 1.012933,0.5807 1.193771,2.908 0.04604,0.5927 0.141881,1.2837 0.214266,1.5304 0.266577,0.9086 0.810999,1.6418 1.652913,2.1733 0.186657,0.1174 0.367314,0.2227 0.367314,0.2448 0,0.023 -0.974372,0.063 -2.142665,0.061 -3.2835568,0.07 -3.2924302,0.025 -3.3058259,-4.3771 0.00284,-2.9045 -0.021618,-3.2005 0.061219,-3.2141 z"
         style="fill:#ffffff;fill-opacity:1;stroke:none" />
    </g>
  </g>
</svg>
